# xmcd
#
# Track frame offsets:
#	150
#	16852
#	33775
#	58230
#	80642
#	94837
#	112700
#	128120
#	146265
#	163320
#	186165
#	203840
#	220790
#
# Disc length: 3198 seconds
#
# Revision: 0
# Processed by: cddbd v1.4PL0 Copyright (c) Steve Scherf et al.
# Submitted via: audiograbber 1.80.04
#
DISCID=ac0c7c0d
DTITLE=Various Artist - Boo! Ere Cop A Load Of This
DYEAR=1993
DGENRE=
TTITLE0=Shoulders - Charm
TTITLE1=The Tender Trap - Oh Marie
TTITLE2=The Tansads - Music Down
TTITLE3=The Levellers - Carry Me
TTITLE4=Resque - She Drives My Train
TTITLE5=Bleach - Shotgun
TTITLE6=The Newcranes - Turpentine
TTITLE7=Shoulders - On Sunday
TTITLE8=Stranglmartin - Polishing Your Hate
TTITLE9=Eye Of The Average - The Tansads
TTITLE10=The Love Comes Through - The Tender Trap
TTITLE11=Trash Madonna - Zodiac Mindwarp and The Love Reaction
TTITLE12=Natures Love - The Newcranes
EXTD=Good sounding music from some of the best Irish/Scotish folk singers/bands
EXTD=I was very happy when i found this.\n\nCiao\nPsyonic
EXTT0=
EXTT1=
EXTT2=
EXTT3=
EXTT4=
EXTT5=
EXTT6=
EXTT7=
EXTT8=
EXTT9=
EXTT10=
EXTT11=
EXTT12=
PLAYORDER=
